<?xml version="1.0" standalone="no"?>
<!DOCTYPE svg PUBLIC "-//W3C//DTD SVG 20010904//EN"
 "http://www.w3.org/TR/2001/REC-SVG-20010904/DTD/svg10.dtd">
<svg version="1.0" xmlns="http://www.w3.org/2000/svg"
 width="500.000000pt" height="500.000000pt" viewBox="0 0 500.000000 500.000000"
 preserveAspectRatio="xMidYMid meet">
<metadata>
Created by potrace 1.14, written by Peter Selinger 2001-2017
</metadata>
<g transform="translate(0.000000,500.000000) scale(0.100000,-0.100000)"
fill="#000000" stroke="none">
<path d="M913 4305 c-458 -228 -833 -418 -833 -422 1 -4 133 -89 295 -188 162
-99 295 -184 295 -188 0 -5 -9 -22 -20 -37 -12 -16 -47 -84 -80 -152 -327
-676 -243 -1459 218 -2058 141 -183 339 -355 562 -490 575 -347 1292 -393
1925 -123 563 240 1002 739 1163 1320 56 200 67 287 67 523 -1 285 -23 418
-117 680 -135 378 -432 749 -770 964 l-57 36 -130 -196 c-72 -107 -131 -199
-131 -203 0 -5 26 -25 58 -46 421 -278 686 -802 658 -1305 -38 -682 -518
-1254 -1193 -1420 -382 -94 -755 -53 -1108 121 -443 219 -747 627 -830 1113
-17 101 -20 336 -5 441 23 157 67 300 140 450 27 55 53 106 58 113 7 10 60
-19 221 -119 116 -72 214 -130 216 -127 2 2 -1 35 -6 73 -27 180 32 391 146
524 25 29 50 61 55 70 8 16 33 447 45 811 4 96 8 192 11 213 2 25 0 37 -9 36
-6 0 -387 -187 -844 -414z"/>
<path d="M2008 2343 c34 -2 88 -2 120 0 31 2 3 3 -63 3 -66 0 -92 -1 -57 -3z"/>
<path d="M2898 2343 l172 -3 0 -164 0 -163 -37 -7 c-21 -3 -52 -6 -69 -6 -31
0 -31 0 -32 -54 0 -66 -26 -119 -82 -169 -39 -36 -39 -37 -13 -31 97 23 202
119 228 208 11 35 15 99 15 223 l0 173 -177 -2 -178 -2 173 -3z"/>
<path d="M2210 2331 c72 -22 138 -73 183 -141 10 -13 17 -19 17 -13 0 6 -21
34 -46 62 -47 52 -127 102 -161 100 -12 0 -10 -3 7 -8z"/>
<path d="M2867 2203 l62 -4 4 -82 3 -82 2 88 2 87 -67 -2 -68 -2 62 -3z"/>
<path d="M2258 2193 c7 -3 16 -2 19 1 4 3 -2 6 -13 5 -11 0 -14 -3 -6 -6z"/>
<path d="M2291 2186 c2 -2 15 -9 29 -15 24 -11 24 -11 6 3 -16 13 -49 24 -35
12z"/>
<path d="M2380 2126 c18 -22 38 -53 46 -70 l13 -31 0 40 c0 22 -3 34 -6 27 -3
-8 -19 3 -45 30 -38 41 -38 41 -8 4z"/>
<path d="M2411 2155 c1 -19 18 -51 18 -35 0 8 -4 22 -9 30 -5 8 -9 11 -9 5z"/>
<path d="M2148 2073 c34 -2 88 -2 120 0 31 2 3 3 -63 3 -66 0 -92 -1 -57 -3z"/>
<path d="M2643 2073 c31 -2 83 -2 115 0 31 2 5 3 -58 3 -63 0 -89 -1 -57 -3z"/>
<path d="M2474 1903 c-19 -7 4 -85 34 -116 44 -46 78 -60 142 -55 68 5 112 33
140 88 24 47 25 76 4 84 -18 7 -302 6 -320 -1z"/>
<path d="M2100 1845 c0 -22 41 -70 77 -92 46 -28 119 -31 170 -7 32 16 83 76
83 99 0 5 -9 -4 -20 -22 -23 -38 -65 -68 -81 -57 -7 4 -10 3 -6 -2 3 -5 -23
-9 -58 -9 -35 0 -61 4 -57 9 3 5 0 6 -6 2 -18 -11 -49 10 -77 52 -14 20 -25
32 -25 27z m188 -102 c-10 -2 -28 -2 -40 0 -13 2 -5 4 17 4 22 1 32 -1 23 -4z"/>
<path d="M2005 1801 c6 -11 3 -13 -13 -9 -12 4 -22 4 -22 2 0 -6 91 -47 94
-42 2 1 -13 17 -33 33 -19 17 -31 24 -26 16z"/>
<path d="M2020 1693 c-63 -23 -142 -104 -167 -173 -16 -44 -22 -91 -27 -242
l-7 -188 58 1 c32 0 123 4 203 8 121 6 152 11 190 30 88 45 151 124 165 206 3
22 8 50 11 63 8 38 -10 24 -34 -29 -48 -100 -113 -128 -305 -129 l-139 0 4
153 c3 121 8 159 22 184 23 44 70 89 115 113 l36 19 -40 0 c-22 0 -60 -8 -85
-16z"/>
<path d="M2190 1692 c-19 -10 -49 -39 -66 -64 -28 -42 -31 -54 -37 -153 -3
-60 -3 -113 0 -118 4 -6 51 -8 120 -4 127 6 162 19 200 76 45 67 40 142 -14
214 -51 66 -133 86 -203 49z"/>
<path d="M2573 1700 c-32 -13 -29 -22 3 -10 33 13 100 13 127 -1 21 -10 21
-10 3 5 -22 18 -97 20 -133 6z"/>
<path d="M2787 1696 c42 -19 95 -75 119 -123 14 -30 19 -68 22 -185 l4 -148
-153 0 c-176 0 -212 11 -275 83 -35 42 -35 42 -28 12 19 -84 84 -164 165 -205
46 -24 75 -27 287 -35 l152 -5 0 193 0 194 -30 61 c-50 99 -134 158 -243 168
l-52 5 32 -15z m79 -24 c-10 -2 -26 3 -35 12 -15 15 -13 16 19 4 26 -9 30 -13
16 -16z"/>
<path d="M2676 1600 c-66 -34 -86 -40 -140 -40 -71 0 -76 -5 -68 -73 6 -52 62
-111 119 -126 24 -7 85 -10 135 -9 l93 3 -1 107 c-2 85 -6 114 -21 140 -10 17
-23 33 -29 35 -6 2 -46 -14 -88 -37z"/>
</g>
</svg>
