<?xml version="1.0" standalone="no"?>
<!DOCTYPE svg PUBLIC "-//W3C//DTD SVG 20010904//EN"
 "http://www.w3.org/TR/2001/REC-SVG-20010904/DTD/svg10.dtd">
<svg version="1.0" xmlns="http://www.w3.org/2000/svg"
 width="512.000000pt" height="512.000000pt" viewBox="0 0 512.000000 512.000000"
 preserveAspectRatio="xMidYMid meet">
<metadata>
Created by potrace 1.14, written by Peter Selinger 2001-2017
</metadata>
<g transform="translate(0.000000,512.000000) scale(0.100000,-0.100000)"
fill="#000000" stroke="none">
<path d="M2378 5115 c-1 -1 -39 -5 -82 -9 -44 -4 -82 -8 -85 -10 -3 -2 -31 -7
-61 -11 -30 -3 -93 -15 -140 -25 -652 -145 -1212 -530 -1588 -1093 -38 -56
-71 -110 -75 -120 -4 -11 -12 -15 -18 -11 -7 4 -9 3 -6 -3 4 -6 -13 -50 -38
-98 -111 -218 -187 -434 -234 -665 -20 -97 -27 -148 -41 -280 -8 -81 -5 -463
5 -520 3 -19 13 -78 21 -130 19 -114 55 -267 90 -372 14 -43 22 -83 18 -89 -4
-7 -3 -9 2 -6 5 3 20 -22 33 -56 14 -34 39 -95 58 -135 18 -39 32 -74 30 -76
-1 -2 5 -12 14 -22 26 -29 59 -101 51 -109 -4 -5 -1 -5 5 -1 7 4 13 3 13 -2 0
-11 157 -250 177 -270 7 -8 26 -30 41 -50 72 -95 246 -271 362 -368 360 -298
774 -482 1255 -560 116 -19 526 -26 650 -12 784 91 1443 500 1879 1164 157
241 313 622 350 858 4 21 8 41 10 45 2 3 7 29 11 56 4 28 9 61 11 75 20 136
26 457 12 600 -33 323 -126 641 -270 920 -133 256 -276 448 -492 662 -217 216
-504 407 -786 525 -92 39 -310 114 -310 108 0 -3 -12 0 -27 6 -41 15 -230 54
-313 64 -25 3 -56 8 -70 11 -27 6 -456 14 -462 9z"/>
</g>
</svg>
